<?xml version="1.0" encoding="UTF-8"?>
<svg version="1.1" xmlns="http://www.w3.org/2000/svg" width="762" height="763">
<path d="M0 0 C2.625 -0.125 2.625 -0.125 6 1 C19.34374533 15.56954871 22.71947595 42.00780756 22.28515625 60.91015625 C19.90127063 101.77534188 -1.36879605 137.09302927 -28 167 C-28.66684814 167.75514893 -29.33369629 168.51029785 -30.02075195 169.28833008 C-35.50859763 175.45650215 -41.21191743 181.3637755 -47.0625 187.1875 C-47.90876953 188.03763672 -48.75503906 188.88777344 -49.62695312 189.76367188 C-54.5885431 194.71761097 -59.65803059 199.45993787 -65 204 C-65.53278564 204.45979248 -66.06557129 204.91958496 -66.61450195 205.39331055 C-72.68597711 210.63104398 -78.85242469 215.71039166 -85.1875 220.625 C-90.24035083 224.54852064 -95.07129281 228.62954224 -99.78125 232.96484375 C-101.77699099 234.7954442 -103.81230611 236.55836483 -105.875 238.3125 C-128.81746859 258.43909217 -151.70916037 286.99189816 -154.20263672 318.56591797 C-156.09940522 355.61702933 -136.5700303 385.63103252 -116.09326172 414.70751953 C-107.97207367 426.24323156 -99.94049021 437.70866151 -93 450 C-92.65050293 450.60618164 -92.30100586 451.21236328 -91.94091797 451.83691406 C-90.90616295 453.63439357 -89.88755045 455.43993611 -88.875 457.25 C-88.29492188 458.28640625 -87.71484375 459.3228125 -87.1171875 460.390625 C-86 463 -86 463 -87 466 C-87.82242188 465.23816406 -88.64484375 464.47632813 -89.4921875 463.69140625 C-94.57124452 458.99192016 -99.64926476 454.29469453 -104.8125 449.6875 C-115.32002046 440.24595987 -125.55684287 430.53404693 -135.5625 420.5625 C-136.29984375 419.82974854 -137.0371875 419.09699707 -137.796875 418.34204102 C-141.8501888 414.27719114 -145.72720272 410.11498893 -149.47436523 405.76635742 C-151.35264364 403.5917144 -153.30043776 401.48574652 -155.25 399.375 C-178.9688291 373.0341915 -201.51733059 340.57627074 -200.33984375 303.73828125 C-199.24791987 284.54606763 -190.11234487 268.43878805 -178 254 C-177.0741226 252.86987043 -176.14834331 251.73966048 -175.22265625 250.609375 C-165.37783762 238.73645357 -154.65590604 227.58833182 -142.53125 218.03125 C-139.98406579 215.98721329 -137.58810266 213.83854271 -135.1875 211.625 C-130.81605172 207.64594944 -126.25989488 203.98971957 -121.59448242 200.36767578 C-117.0108543 196.80720637 -112.49434038 193.17240978 -108 189.5 C-102.98061722 185.40074689 -97.92597192 181.35619803 -92.8125 177.375 C-87.66951004 173.36496487 -82.65227416 169.23103402 -77.69604492 164.99267578 C-74.21796236 162.0190887 -70.69008694 159.11957885 -67.125 156.25 C-63.41027762 153.22876414 -59.97646069 150.10175166 -56.65625 146.65625 C-54.95066092 144.95066092 -53.16260349 143.42180784 -51.3125 141.875 C-23.75407296 117.92036726 -1.18701301 81.9372012 2 45 C2.62059882 32.53033968 2.70732146 19.94734763 0.4375 7.63671875 C0.00642235 5.03870613 -0.07658791 2.62792283 0 0 Z " fill="#F3811A" transform="translate(453,7)"/>
<path d="M0 0 C-6.97382009 4.80285119 -14.1894229 9.10825159 -21.5 13.375 C-40.53247969 24.5620401 -59.21290333 36.2491784 -76.92236328 49.453125 C-79.04305271 51.03205429 -81.17488308 52.59497472 -83.30859375 54.15625 C-90.91219379 59.75009563 -98.08533308 65.56048199 -105 72 C-106.35006164 73.17141454 -107.70407514 74.3382942 -109.0625 75.5 C-125.37860822 89.82155391 -140.0317631 107.34535265 -142.27734375 129.76953125 C-143.14451232 154.01556459 -126.64688282 175.47882768 -113.34375 194.265625 C-100.63379971 212.223462 -92.4385801 228.63660552 -95.42578125 251.21875 C-102.45826638 283.31794594 -131.18533859 305.17468981 -157.16796875 322.05859375 C-162.07291477 325.12330028 -162.07291477 325.12330028 -164 326 C-164.66 325.67 -165.32 325.34 -166 325 C-165.53851563 324.58492188 -165.07703125 324.16984375 -164.6015625 323.7421875 C-152.15025352 311.97988376 -140.67397291 295.53286696 -139.6640625 277.95703125 C-139.22577324 258.1250344 -147.24451902 244.37211578 -159.90576172 229.82202148 C-180.2283341 206.35183333 -194.3994437 176.46954159 -193 145 C-190.58030618 119.36349713 -178.37814728 99.38815926 -161 81 C-160.27683594 80.21238281 -159.55367188 79.42476563 -158.80859375 78.61328125 C-143.71462229 62.75311834 -124.35436514 50.53949395 -105.18701172 40.18603516 C-103.70260224 39.3810272 -102.22256919 38.56790682 -100.74658203 37.74755859 C-73.05679154 22.36048379 -42.88154969 10.87607426 -12.5625 1.875 C-11.53068604 1.5670752 -10.49887207 1.25915039 -9.43579102 0.94189453 C-8.48889404 0.66974121 -7.54199707 0.39758789 -6.56640625 0.1171875 C-5.73052979 -0.12402832 -4.89465332 -0.36524414 -4.03344727 -0.61376953 C-2 -1 -2 -1 0 0 Z " fill="#F38119" transform="translate(560,177)"/>
<path d="M0 0 C0.495 0.99 0.495 0.99 1 2 C0.43410156 2.43570313 -0.13179687 2.87140625 -0.71484375 3.3203125 C-5.41560233 7.03162841 -5.41560233 7.03162841 -8.0625 12.25 C-8.13299992 15.09198475 -8.13299992 15.09198475 -7 18 C-4.73328092 19.14710822 -4.73328092 19.14710822 -2 20 C-1.12811035 20.32274902 -0.2562207 20.64549805 0.64208984 20.97802734 C10.49018084 24.26616919 20.3440887 25.47946436 30.625 26.625 C31.53486664 26.73016937 32.44473328 26.83533875 33.38217163 26.94369507 C46.33743019 28.437549 59.29135645 29.59067379 72.3125 30.3125 C73.02085999 30.35183655 73.72921997 30.3911731 74.45904541 30.43170166 C88.34526954 31.17620918 102.11736119 31.12853728 116 30.3125 C117.04781143 30.25106308 117.04781143 30.25106308 118.11679077 30.18838501 C142.42397484 28.70783265 166.60580926 25.15244222 190.48754883 20.4362793 C191.54353271 20.23301025 192.5995166 20.02974121 193.6875 19.8203125 C194.59886719 19.63742676 195.51023437 19.45454102 196.44921875 19.26611328 C200.93374256 18.79826001 204.19799264 19.87923147 208.01953125 22.15234375 C209.16566895 22.81592896 209.16566895 22.81592896 210.33496094 23.49291992 C211.15254883 23.96963135 211.97013672 24.44634277 212.8125 24.9375 C224.10325139 31.360631 235.93183994 36.24242007 248 41 C248 41.99 248 42.98 248 44 C167.77061126 75.21156589 64.52156978 89.1049822 -17 54 C-26.42574903 49.7781675 -36.30078678 43.54573719 -41 34 C-41.84589062 29.19137852 -41.55434647 25.15304066 -39.4375 20.75 C-34.31073707 14.96595977 -28.90779825 11.03915259 -21.875 7.875 C-20.77490601 7.36743164 -20.77490601 7.36743164 -19.65258789 6.84960938 C-13.25969537 3.96979059 -6.78319989 1.79312415 0 0 Z " fill="#4D7793" transform="translate(253,664)"/>
<path d="M0 0 C0 0.66 0 1.32 0 2 C-0.75168457 2.18997559 -1.50336914 2.37995117 -2.27783203 2.57568359 C-48.58557539 12.52880665 -48.58557539 12.52880665 -88 36 C-88.16681109 39.08347826 -88.16681109 39.08347826 -88 42 C-61.25395537 53.40253769 -29.83055974 53.13285928 -1.20703125 53.203125 C0.56856302 53.21006942 2.34415709 53.21706442 4.11975098 53.22410583 C9.80900308 53.24335761 15.49821918 53.24803163 21.1875 53.25 C22.15920261 53.25073643 23.13090523 53.25147285 24.13205338 53.2522316 C58.83335836 53.27363442 93.35385492 52.43329153 127.98852539 50.19274902 C130.72435952 50.01764233 133.46051713 49.8524477 136.19726562 49.69238281 C178.90918824 47.16108758 221.80997834 41.02175491 263.98828125 33.99511719 C264.85958176 33.85209671 265.73088226 33.70907623 266.62858582 33.5617218 C268.23118471 33.29767785 269.83278344 33.02745348 271.43305969 32.74967957 C274.74710752 32.20404916 276.7608111 31.92027037 280 33 C279.07703125 33.44988281 278.1540625 33.89976562 277.203125 34.36328125 C268.32109366 38.73151232 259.61253396 43.34055679 251.00488281 48.22973633 C241.45672602 53.58486396 232.14635468 56.06990377 221.4375 58.3125 C220.72703522 58.46240387 220.01657043 58.61230774 219.28457642 58.76675415 C182.29652583 66.51856334 144.71712881 70.84730034 107.0625 73.6875 C105.85232712 73.77890762 105.85232712 73.77890762 104.6177063 73.87216187 C85.14765677 75.32271487 65.71208573 76.16257905 46.1875 76.203125 C44.76159546 76.20736607 44.76159546 76.20736607 43.30688477 76.21169281 C38.25585677 76.22654158 33.20485617 76.23585566 28.15380859 76.24023438 C24.09414455 76.24457291 20.03469857 76.25830461 15.97509766 76.28125 C-116.35458473 77.01311978 -116.35458473 77.01311978 -149 54 C-149.928125 53.38125 -149.928125 53.38125 -150.875 52.75 C-152.8441557 49.68686891 -152.69824754 46.44378398 -152 43 C-146.09415304 34.99852993 -135.50322178 30.53847374 -126.625 26.6875 C-125.54355713 26.21675049 -124.46211426 25.74600098 -123.34790039 25.26098633 C-84.81520532 8.83871208 -42.05063963 -1.19575279 0 0 Z " fill="#4D7793" transform="translate(269,473)"/>
<path d="M0 0 C-1.1275318 2.76757806 -2.26282682 4.25608767 -4.4375 6.375 C-7.18704783 9.19160997 -8.66778391 11.29939976 -10 15 C-9.93574141 18.72699797 -9.61685824 21.06130267 -7.5625 24.1875 C6.19978893 33.92180193 26.21194836 33.30411813 42.4375 34.625 C43.20430084 34.6875296 43.97110168 34.7500592 44.76113892 34.81448364 C64.27738195 36.38304383 83.7320052 37.2096156 103.3125 37.1875 C104.81327087 37.18659363 104.81327087 37.18659363 106.34436035 37.18566895 C151.38714453 37.11234723 196.78126561 32.13680276 240.875 22.7890625 C244.32530872 22.0907993 247.46994943 21.54230343 251 22 C253.02734375 23.43359375 253.02734375 23.43359375 254.9375 25.4375 C263.3527182 33.44048623 274.02001244 39.30555713 285 43 C282.6549106 45.3450894 281.24240221 45.65906253 278.06640625 46.515625 C276.52629883 46.9334021 276.52629883 46.9334021 274.95507812 47.35961914 C273.83552734 47.65344482 272.71597656 47.94727051 271.5625 48.25 C270.39525391 48.5586499 269.22800781 48.8672998 268.02539062 49.18530273 C180.26425367 72.08334443 78.57481662 83.44187322 -34.75 49.0625 C-40.44394302 45.31307342 -45.043154 41.03001234 -47.125 34.4375 C-46.89394016 28.08335452 -44.13197803 23.64936121 -40 19 C-30.84061731 11.99431 -20.67473734 7.20388794 -10 3 C-9.2790918 2.71608398 -8.55818359 2.43216797 -7.81542969 2.13964844 C-2.2623538 0 -2.2623538 0 0 0 Z " fill="#4D7793" transform="translate(232,571)"/>
<path d="M0 0 C13.37002655 11.43381843 21.19622509 25.68604565 22.62109375 43.26953125 C23.27530332 64.66603262 12.74328011 82.59918433 -1.21484375 97.9140625 C-29.41349436 127.67742673 -72.51640371 144.4628841 -111.5625 154.00390625 C-112.5525 154.00390625 -113.5425 154.00390625 -114.5625 154.00390625 C-113.65704906 151.10213998 -113.04728728 149.37714046 -110.60498047 147.49682617 C-109.80463379 147.08021729 -109.00428711 146.6636084 -108.1796875 146.234375 C-107.2712207 145.74614258 -106.36275391 145.25791016 -105.42675781 144.75488281 C-104.44030273 144.23893555 -103.45384766 143.72298828 -102.4375 143.19140625 C-93.63586641 138.40445507 -85.14544053 133.31863577 -76.8125 127.75390625 C-75.85069824 127.11735107 -74.88889648 126.4807959 -73.89794922 125.82495117 C-63.399977 118.75449871 -53.82257632 110.61547559 -44.5625 102.00390625 C-43.81226563 101.31941406 -43.06203125 100.63492188 -42.2890625 99.9296875 C-27.58494843 85.97367748 -15.7497523 66.58188367 -15.0625 45.94140625 C-15.54774472 31.94757453 -21.11759586 19.98195756 -31.125 10.25390625 C-42.21253311 0.81085435 -56.02048276 -4.13804403 -70.5625 -3.99609375 C-79.39365927 -2.82164061 -88.0232796 -0.49927478 -96.5625 2.00390625 C-93.12605957 -4.8689746 -88.45440712 -8.51414736 -81.2722168 -11.0949707 C-78.05938734 -12.162445 -74.82582386 -13.09245653 -71.5625 -13.99609375 C-70.68980469 -14.24488281 -69.81710937 -14.49367188 -68.91796875 -14.75 C-45.32573789 -20.20022458 -19.05928961 -14.84648932 0 0 Z " fill="#4D7793" transform="translate(660.5625,480.99609375)"/>
<path d="M0 0 C2.875 0.25 2.875 0.25 6 1 C7.375 3.0625 7.375 3.0625 8 5 C7.34 5 6.68 5 6 5 C6 6.65 6 8.3 6 10 C5.01 10.33 4.02 10.66 3 11 C3 13.64 3 16.28 3 19 C2.67 19 2.34 19 2 19 C1.66225668 16.77149723 1.3299813 14.54216533 1 12.3125 C0.814375 11.07113281 0.62875 9.82976563 0.4375 8.55078125 C0.07899589 5.64113629 -0.08942256 2.92299978 0 0 Z " fill="#DE862E" transform="translate(453,7)"/>
<path d="M0 0 C2.625 -0.1875 2.625 -0.1875 5 0 C5 0.66 5 1.32 5 2 C5.66 2.33 6.32 2.66 7 3 C4.54732365 4.53068488 2.08866106 6.04968623 -0.375 7.5625 C-1.07367188 8.00013672 -1.77234375 8.43777344 -2.4921875 8.88867188 C-4.29185903 9.98750978 -6.14322343 11.00067867 -8 12 C-8.66 11.67 -9.32 11.34 -10 11 C-9.44570313 10.45730469 -8.89140625 9.91460937 -8.3203125 9.35546875 C-7.23363281 8.28232422 -7.23363281 8.28232422 -6.125 7.1875 C-5.40570313 6.47980469 -4.68640625 5.77210938 -3.9453125 5.04296875 C-1.84641063 2.95600806 -1.84641063 2.95600806 0 0 Z " fill="#EA7F25" transform="translate(404,491)"/>
<path d="M0 0 C0.66 0 1.32 0 2 0 C4.25980539 4.51961078 4.31983581 8.04254494 4 13 C3.01 14.485 3.01 14.485 2 16 C1.34 16 0.68 16 0 16 C0 10.72 0 5.44 0 0 Z " fill="#E18344" transform="translate(421,442)"/>
<path d="M0 0 C4.95 0 9.9 0 15 0 C15 0.66 15 1.32 15 2 C8.07 3.485 8.07 3.485 1 5 C0.67 3.35 0.34 1.7 0 0 Z " fill="#527386" transform="translate(254,473)"/>
<path d="M0 0 C-1.41166886 0.98635837 -2.82956184 1.96381255 -4.25 2.9375 C-5.43335938 3.75541016 -5.43335938 3.75541016 -6.640625 4.58984375 C-8.82636993 5.89622441 -10.5153801 6.54980511 -13 7 C-13 6.01 -13 5.02 -13 4 C-13.99 3.67 -14.98 3.34 -16 3 C-13.71068726 2.30364247 -11.4191243 1.61765623 -9.125 0.9375 C-8.47402344 0.73833984 -7.82304688 0.53917969 -7.15234375 0.33398438 C-2.2265625 -1.11328125 -2.2265625 -1.11328125 0 0 Z " fill="#E68029" transform="translate(560,177)"/>
<path d="M0 0 C0.99 1.32 1.98 2.64 3 4 C2.01 5.485 2.01 5.485 1 7 C-1.625 7.1875 -1.625 7.1875 -4 7 C-4.33 7.99 -4.66 8.98 -5 10 C-5.99 10.33 -6.98 10.66 -8 11 C-6.63629701 8.00779732 -5.05091917 5.70973471 -2.875 3.25 C-2.33617187 2.63640625 -1.79734375 2.0228125 -1.2421875 1.390625 C-0.62730469 0.70226562 -0.62730469 0.70226562 0 0 Z " fill="#EE7E2E" transform="translate(281,254)"/>
<path d="M0 0 C1.29904812 4.1827507 0.45033124 6.87800595 -1 11 C-1.66 11.66 -2.32 12.32 -3 13 C-3.99 13 -4.98 13 -6 13 C-4.31326082 8.50202887 -2.18326108 4.27113698 0 0 Z " fill="#E18624" transform="translate(417,470)"/>
<path d="M0 0 C2.6486859 3.19668988 4.93992341 6.39486597 7 10 C4.36 9.34 1.72 8.68 -1 8 C-0.67 5.36 -0.34 2.72 0 0 Z " fill="#EA7E35" transform="translate(320,398)"/>
<path d="M0 0 C0 0.99 0 1.98 0 3 C-0.66 3 -1.32 3 -2 3 C-2 3.66 -2 4.32 -2 5 C-5.75 6.125 -5.75 6.125 -8 5 C-8.33 5.99 -8.66 6.98 -9 8 C-10.32 7.67 -11.64 7.34 -13 7 C-11.21190303 5.82786955 -9.41940875 4.66244474 -7.625 3.5 C-6.62726563 2.8503125 -5.62953125 2.200625 -4.6015625 1.53125 C-2 0 -2 0 0 0 Z " fill="#E68A22" transform="translate(445,224)"/>
<path d="M0 0 C-1.28519565 2.86697492 -2.57129254 4.97607712 -5 7 C-5.66 7 -6.32 7 -7 7 C-7 6.01 -7 5.02 -7 4 C-8.98 4.33 -10.96 4.66 -13 5 C-10.54278328 3.36185552 -8.65432189 2.38047801 -5.9375 1.375 C-5.24527344 1.11460937 -4.55304688 0.85421875 -3.83984375 0.5859375 C-2 0 -2 0 0 0 Z " fill="#456688" transform="translate(232,571)"/>
<path d="M0 0 C0.33 0 0.66 0 1 0 C1 2.64 1 5.28 1 8 C1.66 8 2.32 8 3 8 C2.67 9.32 2.34 10.64 2 12 C1.34 12 0.68 12 0 12 C0 13.32 0 14.64 0 16 C-0.66 16 -1.32 16 -2 16 C-1.34 10.72 -0.68 5.44 0 0 Z " fill="#DC8634" transform="translate(455,52)"/>
<path d="M0 0 C0.66 0.33 1.32 0.66 2 1 C0.625 2.5 0.625 2.5 -1 4 C-1.66 4 -2.32 4 -3 4 C-3.226875 4.5775 -3.45375 5.155 -3.6875 5.75 C-5.33038023 8.5663661 -7.39533227 10.08077114 -10 12 C-8.62968895 6.34746692 -4.32310587 3.4886459 0 0 Z " fill="#506B7E" transform="translate(223,676)"/>
<path d="M0 0 C2.12508244 3.18762365 2.5020163 5.26512223 3 9 C1.02 8.34 -0.96 7.68 -3 7 C-3 5.68 -3 4.36 -3 3 C-2.01 3 -1.02 3 0 3 C0 2.01 0 1.02 0 0 Z " fill="#DB8134" transform="translate(418,321)"/>
<path d="M0 0 C0.33 0 0.66 0 1 0 C1.66 4.29 2.32 8.58 3 13 C2.01 13 1.02 13 0 13 C-0.83796731 8.34462607 -1.0161692 4.62921525 0 0 Z " fill="#E0832B" transform="translate(298,345)"/>
<path d="M0 0 C-0.66 2.97 -1.32 5.94 -2 9 C-2.33 9 -2.66 9 -3 9 C-3 7.02 -3 5.04 -3 3 C-3.99 3 -4.98 3 -6 3 C-6 2.34 -6 1.68 -6 1 C-4 0 -4 0 0 0 Z " fill="#EF8335" transform="translate(421,289)"/>
<path d="M0 0 C0.66 0 1.32 0 2 0 C-0.89066059 9.59453303 -0.89066059 9.59453303 -4 13 C-4 11.02 -4 9.04 -4 7 C-3.34 7 -2.68 7 -2 7 C-1.34 4.69 -0.68 2.38 0 0 Z " fill="#E18324" transform="translate(461,115)"/>
<path d="M0 0 C0.66 0.33 1.32 0.66 2 1 C1.67 2.32 1.34 3.64 1 5 C-1.31 5.33 -3.62 5.66 -6 6 C-2.25 1.125 -2.25 1.125 0 0 Z " fill="#EC802E" transform="translate(370,177)"/>
<path d="M0 0 C2.5 1.125 2.5 1.125 5 3 C5.3125 6.1875 5.3125 6.1875 5 9 C1.7457985 6.16569547 0.4793247 4.31392226 0 0 Z " fill="#587386" transform="translate(212,695)"/>
<path d="M0 0 C2.97 0.495 2.97 0.495 6 1 C5.67 2.32 5.34 3.64 5 5 C4.01 5 3.02 5 2 5 C1.34 3.35 0.68 1.7 0 0 Z " fill="#EF831B" transform="translate(453,7)"/>
<path d="M0 0 C2.50298434 2.93828597 3.46930939 5.17902761 4 9 C2.35 7.68 0.7 6.36 -1 5 C-0.67 3.35 -0.34 1.7 0 0 Z " fill="#DB8427" transform="translate(363,464)"/>
<path d="M0 0 C2.31 0 4.62 0 7 0 C5.68 1.32 4.36 2.64 3 4 C1.68 3.34 0.36 2.68 -1 2 C-0.67 1.34 -0.34 0.68 0 0 Z " fill="#EF7F31" transform="translate(399,193)"/>
<path d="M0 0 C0.66 0 1.32 0 2 0 C2.33 2.31 2.66 4.62 3 7 C1.35 5.35 -0.3 3.7 -2 2 C-1.34 2 -0.68 2 0 2 C0 1.34 0 0.68 0 0 Z " fill="#EC8032" transform="translate(321,426)"/>
<path d="M0 0 C-2.31 1.65 -4.62 3.3 -7 5 C-7 3.35 -7 1.7 -7 0 C-2.25 -1.125 -2.25 -1.125 0 0 Z " fill="#E78028" transform="translate(398,202)"/>
<path d="M0 0 C0.33 0.66 0.66 1.32 1 2 C-1.52788007 4.79872437 -3.20411134 6.45773019 -7 7 C-4.78071806 4.09197539 -3.07030857 2.04687238 0 0 Z " fill="#E7771B" transform="translate(401,150)"/>
<path d="M0 0 C0.33 1.32 0.66 2.64 1 4 C-1.375 5.5625 -1.375 5.5625 -4 7 C-4.66 6.67 -5.32 6.34 -6 6 C-4.02 4.02 -2.04 2.04 0 0 Z " fill="#D5873D" transform="translate(400,496)"/>
<path d="M0 0 C2.0625 0.4375 2.0625 0.4375 4 1 C1.03 3.475 1.03 3.475 -2 6 C-1.125 1.125 -1.125 1.125 0 0 Z " fill="#E58428" transform="translate(337,250)"/>
<path d="M0 0 C0.33 0.66 0.66 1.32 1 2 C-2.75 5 -2.75 5 -5 5 C-5 4.34 -5 3.68 -5 3 C-5.66 2.67 -6.32 2.34 -7 2 C-4.69 1.34 -2.38 0.68 0 0 Z " fill="#4C6679" transform="translate(253,664)"/>
<path d="M0 0 C0.66 0.33 1.32 0.66 2 1 C1.75 2.875 1.75 2.875 1 5 C-1.0625 6.25 -1.0625 6.25 -3 7 C-2.01 4.69 -1.02 2.38 0 0 Z " fill="#476584" transform="translate(643,544)"/>
<path d="M0 0 C1.5 1.3125 1.5 1.3125 3 3 C3 3.99 3 4.98 3 6 C2.01 6 1.02 6 0 6 C-0.33 6.66 -0.66 7.32 -1 8 C-0.67 5.36 -0.34 2.72 0 0 Z " fill="#ED8129" transform="translate(320,398)"/>
<path d="M0 0 C0.33 0 0.66 0 1 0 C1 1.65 1 3.3 1 5 C-0.65 5.33 -2.3 5.66 -4 6 C-2.69593116 3.98079663 -1.36176581 1.98075027 0 0 Z " fill="#ED8129" transform="translate(272,265)"/>
<path d="M0 0 C2.35953094 2.35953094 2.49141413 3.77895617 3 7 C1.35 7 -0.3 7 -2 7 C-1.34 4.69 -0.68 2.38 0 0 Z " fill="#E48533" transform="translate(466,23)"/>
</svg>
